<svg xmlns="http://www.w3.org/2000/svg" width="187" height="94" fill="none" viewBox="0 0 187 94">
  <path fill="#fff" d="M79.945 34.31h8.548c3.658 0 6.426.514 8.305 1.54 1.878 1.028 2.818 2.831 2.818 5.411 0 1.04-.17 1.98-.507 2.819-.326.839-.802 1.528-1.428 2.066-.627.539-1.39.89-2.293 1.053v.187a7.445 7.445 0 0 1 2.48.977c.74.451 1.328 1.115 1.767 1.992.45.864.676 2.016.676 3.457 0 1.666-.407 3.094-1.221 4.283-.814 1.19-1.98 2.105-3.495 2.743-1.503.627-3.294.94-5.373.94H79.945V34.31Zm5.824 10.878h3.382c1.69 0 2.862-.263 3.513-.789.652-.538.977-1.328.977-2.367 0-1.052-.388-1.804-1.165-2.255-.764-.463-1.978-.695-3.644-.695h-3.063v6.106Zm0 4.622v7.158h3.795c1.754 0 2.975-.338 3.664-1.014.689-.677 1.033-1.585 1.033-2.725 0-.676-.15-1.271-.45-1.785-.301-.513-.809-.914-1.522-1.202-.702-.288-1.673-.432-2.913-.432H85.77Zm28.182-9.47c2.818 0 4.979.615 6.482 1.842 1.503 1.228 2.254 3.094 2.254 5.599v13.997h-4.002l-1.108-2.856h-.15c-.602.752-1.215 1.365-1.842 1.841a6.31 6.31 0 0 1-2.16 1.052c-.814.226-1.804.339-2.969.339-1.24 0-2.354-.239-3.344-.714-.977-.476-1.747-1.203-2.311-2.18-.563-.99-.845-2.242-.845-3.757 0-2.23.783-3.87 2.348-4.923 1.566-1.064 3.914-1.653 7.046-1.766l3.644-.112v-.921c0-1.102-.288-1.91-.864-2.424-.576-.513-1.378-.77-2.405-.77-1.014 0-2.01.144-2.987.432-.977.288-1.954.651-2.931 1.09l-1.897-3.87c1.114-.59 2.361-1.053 3.738-1.39a18.146 18.146 0 0 1 4.303-.508Zm3.043 11.706-2.216.075c-1.854.05-3.144.382-3.871.996-.714.613-1.071 1.421-1.071 2.423 0 .877.257 1.503.771 1.879.513.363 1.183.545 2.01.545 1.227 0 2.261-.363 3.1-1.09.852-.726 1.277-1.76 1.277-3.1v-1.728Zm23.335-11.667c.288 0 .62.018.996.056.388.025.701.063.939.113l-.432 5.373c-.188-.063-.457-.107-.808-.132a8.12 8.12 0 0 0-.883-.056 8.32 8.32 0 0 0-2.161.282 5.3 5.3 0 0 0-1.86.92c-.551.414-.989.965-1.315 1.654-.313.676-.469 1.509-.469 2.498v10.69h-5.731V40.774h4.34l.846 3.532h.282a8.81 8.81 0 0 1 1.54-1.954 7.358 7.358 0 0 1 2.123-1.428 6.21 6.21 0 0 1 2.593-.544Zm14.279 21.775c-2.08 0-3.852-.376-5.317-1.128-1.466-.764-2.581-1.941-3.345-3.532-.764-1.59-1.146-3.626-1.146-6.106 0-2.567.433-4.66 1.297-6.275.877-1.628 2.085-2.824 3.626-3.588 1.553-.764 3.35-1.146 5.392-1.146 1.453 0 2.705.144 3.757.432 1.065.275 1.992.607 2.781.995l-1.691 4.434a26.784 26.784 0 0 0-2.517-.883 7.92 7.92 0 0 0-2.33-.357c-1.002 0-1.835.238-2.499.714-.664.464-1.158 1.165-1.484 2.105-.326.939-.489 2.116-.489 3.532 0 1.39.176 2.542.526 3.456.351.915.858 1.597 1.522 2.048.664.439 1.472.658 2.424.658 1.19 0 2.248-.157 3.175-.47a12.394 12.394 0 0 0 2.705-1.352v4.903a9.388 9.388 0 0 1-2.761 1.184c-.952.25-2.161.376-3.626.376Zm30.361-10.916c0 1.753-.238 3.306-.714 4.66-.464 1.352-1.146 2.498-2.048 3.437-.889.927-1.967 1.629-3.232 2.105-1.252.476-2.668.714-4.246.714-1.478 0-2.837-.239-4.077-.714a9.062 9.062 0 0 1-3.212-2.105c-.902-.939-1.604-2.085-2.105-3.438-.488-1.352-.732-2.906-.732-4.66 0-2.329.413-4.302 1.24-5.917.826-1.616 2.004-2.843 3.532-3.683 1.528-.839 3.35-1.258 5.467-1.258 1.967 0 3.708.42 5.223 1.258 1.528.84 2.724 2.067 3.589 3.683.876 1.615 1.315 3.588 1.315 5.918Zm-14.523 0c0 1.378.15 2.536.451 3.476.3.939.77 1.647 1.409 2.123.638.475 1.471.713 2.498.713 1.015 0 1.835-.237 2.462-.713.638-.476 1.102-1.184 1.39-2.123.301-.94.451-2.098.451-3.476 0-1.39-.15-2.543-.451-3.457-.288-.927-.752-1.622-1.39-2.086-.639-.463-1.472-.695-2.499-.695-1.516 0-2.618.52-3.307 1.56-.676 1.04-1.014 2.599-1.014 4.678Z"/>
  <circle cx="36.258" cy="56.918" r="26.543" stroke="#fff" stroke-width="11.543" transform="rotate(-150 36.258 56.918)"/>
  <path stroke="#fff" stroke-width="11.543" d="M51.83 34.705c5.135-8.895 2.087-20.27-6.808-25.406-8.895-5.136-20.27-2.088-25.406 6.808-3.915 6.78-3.075 15 1.485 20.8"/>
</svg>
